<svg width="33" height="33" viewBox="0 0 33 33" fill="none" xmlns="http://www.w3.org/2000/svg">
<path d="M23.04 19.4431L27.04 23.8431C27.2228 24.0295 27.3468 24.2654 27.3967 24.5216C27.4466 24.7777 27.4203 25.0429 27.3209 25.2843C27.2215 25.5256 27.0535 25.7325 26.8377 25.8792C26.6218 26.026 26.3677 26.1061 26.1067 26.1098H6.64004C6.37908 26.1061 6.12492 26.026 5.90909 25.8792C5.69326 25.7325 5.52524 25.5256 5.42587 25.2843C5.3265 25.0429 5.30014 24.7777 5.35006 24.5216C5.39998 24.2654 5.52399 24.0295 5.70671 23.8431L9.70671 19.4431H9.30671C9.04574 19.4395 8.79159 19.3593 8.57576 19.2126C8.35993 19.0658 8.19191 18.8589 8.09254 18.6176C7.99316 18.3763 7.9668 18.1111 8.01673 17.8549C8.06665 17.5987 8.19066 17.3628 8.37338 17.1765L12.3734 12.7765H12.1067C11.8344 12.801 11.5611 12.7413 11.3238 12.6053C11.0866 12.4693 10.8969 12.2637 10.7805 12.0163C10.6641 11.7688 10.6265 11.4916 10.6729 11.2221C10.7194 10.9527 10.8475 10.704 11.04 10.5098L16.3734 4.77647L21.7067 10.5098C21.8992 10.704 22.0274 10.9527 22.0738 11.2221C22.1202 11.4916 22.0827 11.7688 21.9663 12.0163C21.8498 12.2637 21.6601 12.4693 21.4229 12.6053C21.1857 12.7413 20.9124 12.801 20.64 12.7765H20.3734L24.3734 17.1765C24.5561 17.3628 24.6801 17.5987 24.73 17.8549C24.78 18.1111 24.7536 18.3763 24.6542 18.6176C24.5548 18.8589 24.3868 19.0658 24.171 19.2126C23.9552 19.3593 23.701 19.4395 23.44 19.4431H23.04Z" stroke="#176700" stroke-width="2.66667" stroke-linecap="round" stroke-linejoin="round"/>
<path d="M16.3733 30.1098V26.1098" stroke="#176700" stroke-width="2.66667" stroke-linecap="round" stroke-linejoin="round"/>
</svg>
